name C:\Users\u0101727\Documents\MyRepositories\upper-imu-dc\Results\main_tracking\Case_69\kinematics.mot
datacolumns 10
datarows 56
range 0.50000000 1.05000000
endheader 
time	clav_prot	clav_elev	scapula_abduction	scapula_elevation	scapula_upward_rot	scapula_winging	plane_elv	shoulder_elv	axial_rot	
          0.50000000	        -23.92544060	         -6.27212035	        -15.15552975	         -5.20002009	         11.44997750	          6.48605268	        -29.70075024	         13.40008723	         45.61937458	
          0.51000000	        -23.91204707	         -6.25854395	        -15.22029494	         -5.20624909	         11.43321234	          6.49533317	        -29.02721326	         13.47193587	         45.07496196	
          0.52000000	        -23.91021776	         -6.27313011	        -15.22342863	         -5.21285840	         11.41608368	          6.50493964	        -28.35216131	         13.54319343	         44.52998652	
          0.53000000	        -23.90802856	         -6.28885429	        -15.22653202	         -5.21992349	         11.39744432	          6.51533925	        -27.67386575	         13.61230305	         43.98388768	
          0.54000000	        -23.90541773	         -6.30588182	        -15.22953487	         -5.22753352	         11.37716310	          6.52662634	        -26.99008176	         13.67881180	         43.43626346	
          0.55000000	        -23.90239537	         -6.32423947	        -15.23231182	         -5.23577462	         11.35548338	          6.53875399	        -26.29828094	         13.74269166	         42.88676623	
          0.56000000	        -23.89899359	         -6.34391218	        -15.23470176	         -5.24474168	         11.33279722	          6.55162432	        -25.59570470	         13.80413261	         42.33489168	
          0.57000000	        -23.89524012	         -6.36488052	        -15.23650816	         -5.25453993	         11.30954901	          6.56512556	        -24.87938411	         13.86349548	         41.77973951	
          0.58000000	        -23.89114068	         -6.38713246	        -15.23749661	         -5.26527854	         11.28618114	          6.57914939	        -24.14614188	         13.92132130	         41.21976115	
          0.59000000	        -23.88666590	         -6.41066371	        -15.23739158	         -5.27706092	         11.26309976	          6.59359912	        -23.39259851	         13.97835431	         40.65253939	
          0.60000000	        -23.88174216	         -6.43547221	        -15.23587332	         -5.28997442	         11.24065429	          6.60839238	        -22.61519557	         14.03556002	         40.07463871	
          0.61000000	        -23.87624664	         -6.46154779	        -15.23257566	         -5.30408001	         11.21913020	          6.62345870	        -21.81024527	         14.09412726	         39.48155952	
          0.62000000	        -23.87000684	         -6.48886281	        -15.22708595	         -5.31940571	         11.19875142	          6.63873528	        -20.97401151	         14.15545297	         38.86782074	
          0.63000000	        -23.86280422	         -6.51736236	        -15.21894586	         -5.33594260	         11.17969353	          6.65415980	        -20.10282110	         14.22110491	         38.22717802	
          0.64000000	        -23.85437995	         -6.54695179	        -15.20765020	         -5.35364219	         11.16210854	          6.66965957	        -19.19319378	         14.29276011	         37.55295829	
          0.65000000	        -23.84444225	         -6.57749823	        -15.19264689	         -5.37242371	         11.14614636	          6.68514670	        -18.24197407	         14.37214226	         36.83845804	
          0.66000000	        -23.83267464	         -6.60883718	        -15.17333970	         -5.39218443	         11.13197246	          6.70051616	        -17.24644825	         14.46096037	         36.07733689	
          0.67000000	        -23.81874463	         -6.64077495	        -15.14909455	         -5.41280587	         11.11978200	          6.71564315	        -16.20443524	         14.56084791	         35.26395711	
          0.68000000	        -23.80231270	         -6.67310237	        -15.11925057	         -5.43416545	         11.10980180	          6.73038766	        -15.11435027	         14.67331901	         34.39365771	
          0.69000000	        -23.78304077	         -6.70561364	        -15.08313352	         -5.45615015	         11.10228463	          6.74460291	        -13.97524463	         14.79973489	         33.46297386	
          0.70000000	        -23.76059803	         -6.73812136	        -15.04006695	         -5.47866620	         11.09750080	          6.75814309	        -12.78682518	         14.94127308	         32.46981893	
          0.71000000	        -23.73466380	         -6.77046617	        -14.98938442	         -5.50164231	         11.09572121	          6.77087099	        -11.54944581	         15.09890475	         31.41361918	
          0.72000000	        -23.70492945	         -6.80253484	        -14.93043601	         -5.52504018	         11.09720409	          6.78266803	        -10.26408160	         15.27337870	         30.29540174	
          0.73000000	        -23.67109604	         -6.83426956	        -14.86259180	         -5.54885706	         11.10217783	          6.79344192	         -8.93227335	         15.46521235	         29.11779797	
          0.74000000	        -23.63286892	         -6.86567191	        -14.78524133	         -5.57312391	         11.11082383	          6.80313201	         -7.55605453	         15.67469485	         27.88495380	
          0.75000000	        -23.58994964	         -6.89680114	        -14.69778849	         -5.59789958	         11.12326140	          6.81171188	         -6.13786993	         15.90190231	         26.60234698	
          0.76000000	        -23.54202385	         -6.92776553	        -14.59964123	         -5.62325934	         11.13953254	          6.81918898	         -4.68050152	         16.14672968	         25.27653016	
          0.77000000	        -23.48875368	         -6.95870123	        -14.49021100	         -5.64927434	         11.15958791	          6.82559886	         -3.18701402	         16.40893781	         23.91482065	
          0.78000000	        -23.42975955	         -6.98972393	        -14.36890481	         -5.67596704	         11.18326407	          6.83099009	         -1.66074317	         16.68822654	         22.52498594	
          0.79000000	        -23.36461830	         -7.02086076	        -14.23517045	         -5.70324246	         11.21022333	          6.83540981	         -0.10531615	         16.98436267	         21.11490408	
          0.80000000	        -23.29290090	         -7.05205784	        -14.08849311	         -5.73092808	         11.24007234	          6.83887837	          1.47547051	         17.29713334	         19.69219210	
          0.81000000	        -23.21354134	         -7.08412796	        -13.92689831	         -5.75956824	         11.27273295	          6.84166187	          3.07786657	         17.62612910	         18.26394916	
          0.82000000	        -23.12859602	         -7.11823484	        -13.75376831	         -5.79014143	         11.30801142	          6.84429145	          4.69826159	         17.97109427	         16.83636431	
          0.83000000	        -23.03604972	         -7.15248736	        -13.56676648	         -5.82071339	         11.34460635	          6.84619163	          6.33290095	         18.33294937	         15.41456629	
          0.84000000	        -22.93839657	         -7.18713516	        -13.36977194	         -5.85179591	         11.38313468	          6.84735588	          7.97679281	         18.71100128	         14.00294218	
          0.85000000	        -22.83725997	         -7.22198379	        -13.16522039	         -5.88352245	         11.42429279	          6.84756993	          9.62548654	         19.10495503	         12.60456752	
          0.86000000	        -22.73421625	         -7.25706254	        -12.95533739	         -5.91623466	         11.46892535	          6.84669334	         11.27487418	         19.51501815	         11.22094333	
          0.87000000	        -22.63044004	         -7.29215487	        -12.74164493	         -5.95008826	         11.51799405	          6.84445898	         12.92099956	         19.94141671	          9.85238745	
          0.88000000	        -22.52718620	         -7.32706331	        -12.52578214	         -5.98526450	         11.57249010	          6.84062061	         14.56029569	         20.38427330	          8.49772024	
          0.89000000	        -22.42546038	         -7.36145402	        -12.30899973	         -6.02181556	         11.63338128	          6.83488388	         16.18944318	         20.84363351	          7.15462101	
          0.90000000	        -22.32620383	         -7.39501269	        -12.09239918	         -6.05981748	         11.70169150	          6.82695792	         17.80539553	         21.31934078	          5.81978225	
          0.91000000	        -22.23025936	         -7.42738317	        -11.87693062	         -6.09929939	         11.77842124	          6.81654478	         19.40551591	         21.81108445	          4.48900358	
          0.92000000	        -22.13828656	         -7.45816662	        -11.66323294	         -6.14024353	         11.86456986	          6.80332546	         20.98746992	         22.31836448	          3.15758781	
          0.93000000	        -22.05082350	         -7.48700676	        -11.45173068	         -6.18265043	         11.96111856	          6.78699962	         22.54923999	         22.84049832	          1.82059774	
          0.94000000	        -21.96823869	         -7.51358756	        -11.24256284	         -6.22652835	         12.06900885	          6.76728370	         24.08908269	         23.37664350	          0.47321729	
          0.95000000	        -21.89071891	         -7.53765032	        -11.03556357	         -6.27190284	         12.18913158	          6.74391691	         25.60548421	         23.92582302	         -0.88887576	
          0.96000000	        -21.81825079	         -7.55898754	        -10.83024351	         -6.31880498	         12.32230484	          6.71665985	         27.09711590	         24.48697111	         -2.26913402	
          0.97000000	        -21.75061116	         -7.57743384	        -10.62577754	         -6.36726215	         12.46926838	          6.68528898	         28.56277236	         25.05896358	         -3.66977027	
          0.98000000	        -21.68736966	         -7.59284257	        -10.42102264	         -6.41727606	         12.63066802	          6.64958866	         30.00133225	         25.64065187	         -5.09145357	
          0.99000000	        -21.62791021	         -7.60506713	        -10.21455687	         -6.46881030	         12.80705847	          6.60934280	         31.41172423	         26.23087936	         -6.53308670	
          1.00000000	        -21.57146994	         -7.61394352	        -10.00475275	         -6.52177815	         12.99889912	          6.56433067	         32.79291905	         26.82850057	         -7.99171500	
          1.01000000	        -21.51719498	         -7.61928352	         -9.78987393	         -6.57604133	         13.20655627	          6.51432762	         34.14393738	         27.43238922	         -9.46257413	
          1.02000000	        -21.46420240	         -7.62087724	         -9.56818296	         -6.63141558	         13.43030176	          6.45911182	         35.46386548	         28.04144712	        -10.93927707	
          1.03000000	        -21.41163841	         -7.61850141	         -9.33804272	         -6.68767997	         13.67030991	          6.39847400	         36.75186918	         28.65461324	        -12.41411067	
          1.04000000	        -21.35872523	         -7.61193143	         -9.09799830	         -6.74458835	         13.92665368	          6.33222845	         38.00719685	         29.27087326	        -13.87839882	
          1.05000000	        -21.30479351	         -7.60095259	         -8.84683430	         -6.80187951	         14.19930099	          6.26022267	         39.22917346	         29.88926951	        -15.32289156	
